<?xml version="1.0" encoding="UTF-8" standalone="no" ?>
<!DOCTYPE svg PUBLIC "-//W3C//DTD SVG 1.1//EN" "http://www.w3.org/Graphics/SVG/1.1/DTD/svg11.dtd">
<svg xmlns="http://www.w3.org/2000/svg" xmlns:xlink="http://www.w3.org/1999/xlink" version="1.1" width="150" height="100" viewBox="0 0 150 100" xml:space="preserve">
<desc>Created with Fabric.js 5.3.0</desc>
<defs>
</defs>
<g transform="matrix(0.6666666667 0 0 0.6666666667 75 50)" id="lOm631DYBfdRyqpcIlZCS"  >
<path style="stroke: rgb(137,182,11); stroke-width: 0; stroke-dasharray: none; stroke-linecap: butt; stroke-dashoffset: 0; stroke-linejoin: miter; stroke-miterlimit: 4; fill: rgb(0,0,0); fill-rule: nonzero; opacity: 1;"  transform=" translate(-112.5, -75)" d="M 0 0 L 149.98769 0 C 149.99178999999998 0 149.99589999999998 0 150 0 C 191.4 0 225 33.6 225 75 C 225 116.4 191.4 150 150 150 L 150 150 L 0 150 z" stroke-linecap="round" />
</g>
<g transform="matrix(0.5 0 0 0.5 75 50)" id="UYgAhNiL5Q3esCprADye6"  >
<path style="stroke: rgb(137,182,11); stroke-width: 0; stroke-dasharray: none; stroke-linecap: butt; stroke-dashoffset: 0; stroke-linejoin: miter; stroke-miterlimit: 4; fill: rgb(91,20,24); fill-rule: nonzero; opacity: 1;"  transform=" translate(-112.5, -75)" d="M 0 0 L 149.98769 0 C 149.99178999999998 0 149.99589999999998 0 150 0 C 191.4 0 225 33.6 225 75 C 225 116.4 191.4 150 150 150 L 150 150 L 0 150 z" stroke-linecap="round" />
</g>
</svg>